<svg width="313" height="165" viewBox="0 0 313 165" fill="none" xmlns="http://www.w3.org/2000/svg">
<path d="M157.238 165V162.5L162.488 160.5C165.822 159.333 167.988 157.75 168.988 155.75C169.988 153.75 170.488 151.167 170.488 148V17.25C170.488 13.9167 169.988 11.25 168.988 9.25C167.988 7.25 165.822 5.66666 162.488 4.5L157.238 2.5V0H219.488V2.5L213.988 4.75C211.155 5.75 209.238 7.25 208.238 9.25C207.238 11.25 206.738 14 206.738 17.5V148.25C206.738 151.583 207.238 154.167 208.238 156C209.405 157.833 211.572 159.333 214.738 160.5L219.488 162.5V165H157.238ZM249.488 165V162.5L252.738 161.5C256.072 160.5 257.822 158.833 257.988 156.5C258.155 154.167 257.155 151.5 254.988 148.5L206.988 80.25L270.238 15.75C272.572 13.4167 273.822 11.1667 273.988 9.00001C274.322 6.83334 272.738 5.16666 269.238 3.99999L264.988 2.5V0H301.488V2.5L294.988 4.5C291.322 5.66666 288.405 7.08333 286.238 8.75001C284.072 10.4167 281.572 12.6667 278.738 15.5L233.988 61.25L292.738 147C295.238 150.667 297.572 153.667 299.738 156C302.072 158.333 305.322 160.167 309.488 161.5L312.988 162.5V165H249.488Z" fill="white"/>
<path d="M34 165V162.5L44.25 160C51.0833 158.5 54.5 154.333 54.5 147.5V5H33.25C27.0833 5 22.6667 6.66667 20 10C17.3333 13.1667 14.5 17.5833 11.5 23.25L2.5 40.75H0L1.25 0H145.5L146.5 40.75H144L135 23.25C132.167 17.5833 129.417 13.1667 126.75 10C124.083 6.66667 119.667 5 113.5 5H92.25V147.5C92.25 154.333 95.6667 158.5 102.5 160L112.75 162.5V165H34Z" fill="white"/>
</svg>
