<svg width="447" height="99" viewBox="0 0 447 99" fill="none" xmlns="http://www.w3.org/2000/svg">
<path d="M431.978 69.6239C430.799 69.6239 429.863 69.2426 429.17 68.4799C428.546 67.6479 428.234 66.6772 428.234 65.5679C428.234 64.5279 428.477 63.5226 428.962 62.5519C429.725 60.9572 430.695 59.3972 431.874 57.8719C433.122 56.2772 434.266 54.8906 435.306 53.7119C435.999 52.8106 436.346 52.0479 436.346 51.4239C436.346 50.5919 435.826 49.7599 434.786 48.9279C433.954 48.3732 433.191 47.6452 432.498 46.7439C432.013 46.0506 431.666 45.3572 431.458 44.6639C430.349 46.9519 428.927 49.6212 427.194 52.6719C425.53 55.6532 423.797 58.3226 421.994 60.6799C421.717 61.0959 421.439 61.3039 421.162 61.3039C420.954 61.3039 420.85 61.1652 420.85 60.8879C420.85 60.7492 420.885 60.6106 420.954 60.4719C421.023 60.3332 421.231 60.0212 421.578 59.5359C423.381 57.0399 424.837 54.7172 425.946 52.5679C427.055 50.4186 428.026 48.4079 428.858 46.5359L431.146 41.4399C431.215 41.3012 431.285 41.1279 431.354 40.9199C431.493 40.6426 431.597 40.4692 431.666 40.3999C431.805 40.2612 431.943 40.1919 432.082 40.1919C432.359 40.1919 432.567 40.3306 432.706 40.6079C432.845 40.8852 432.845 41.2319 432.706 41.6479C432.567 42.4106 432.671 43.1732 433.018 43.9359C433.365 44.6986 433.815 45.3919 434.37 46.0159C434.925 46.5706 435.722 47.0906 436.762 47.5759C437.802 48.0612 438.738 48.6159 439.57 49.2399C440.402 49.8639 440.714 50.6612 440.506 51.6319C440.229 52.9492 439.501 54.2319 438.322 55.4799C437.143 56.7279 435.965 58.0452 434.786 59.4319C433.954 60.3332 433.191 61.2346 432.498 62.1359C431.874 63.0372 431.389 63.9732 431.042 64.9439C430.973 65.1519 430.903 65.3599 430.834 65.5679C430.834 65.7759 430.834 65.9839 430.834 66.1919C430.834 67.4399 431.493 68.0639 432.81 68.0639C433.226 68.0639 433.746 67.9599 434.37 67.7519C436.103 67.1279 437.698 66.0879 439.154 64.6319C440.679 63.1759 441.962 61.7199 443.002 60.2639C444.111 58.8079 444.839 57.8026 445.186 57.2479C445.741 56.4159 446.087 55.9999 446.226 55.9999C446.434 55.9999 446.538 56.1732 446.538 56.5199C446.538 56.8666 446.434 57.2132 446.226 57.5599C444.701 59.9866 442.967 62.2746 441.026 64.4239C439.085 66.5732 437.005 68.0986 434.786 68.9999C433.746 69.4159 432.81 69.6239 431.978 69.6239Z" fill="#C49F59"/>
<path d="M408.074 69.8321C405.232 69.8321 403.152 69.2081 401.834 67.9601C400.517 66.6427 399.858 64.9094 399.858 62.7601C399.858 62.2054 399.893 61.6507 399.962 61.0961C400.101 60.4721 400.24 59.8481 400.378 59.2241C400.725 57.9761 401.28 56.5201 402.042 54.8561C402.874 53.1921 403.88 51.5627 405.058 49.9681C406.237 48.3734 407.52 47.0561 408.906 46.0161C410.293 44.9761 411.749 44.4561 413.274 44.4561C414.522 44.4561 415.458 44.9067 416.082 45.8081C416.776 46.7094 417.122 47.7841 417.122 49.0321C417.122 50.3494 416.706 51.7014 415.874 53.0881C415.112 54.4054 414.072 55.4801 412.754 56.312C411.229 57.352 409.496 57.8721 407.554 57.8721C406.306 57.8721 405.162 57.6294 404.122 57.1441C403.082 59.2241 402.562 61.2694 402.562 63.2801C402.562 64.7361 402.978 65.9841 403.81 67.0241C404.642 68.0641 406.029 68.5841 407.97 68.5841C410.328 68.5841 412.408 68.0294 414.21 66.9201C416.013 65.7414 417.677 64.2161 419.202 62.3441C420.797 60.4721 422.322 58.4614 423.778 56.312C423.986 56.1041 424.125 56.0001 424.194 56.0001C424.402 56.0001 424.506 56.1734 424.506 56.5201C424.506 56.8667 424.402 57.2134 424.194 57.5601C422.946 59.5014 421.525 61.4081 419.93 63.2801C418.405 65.1521 416.672 66.7121 414.73 67.9601C412.789 69.2081 410.57 69.8321 408.074 69.8321ZM406.514 56.4161C408.317 56.4161 410.016 55.7921 411.61 54.5441C412.373 53.9894 413.032 53.3307 413.586 52.5681C414.141 51.8054 414.522 51.0427 414.73 50.2801C414.938 49.5174 415.042 48.8587 415.042 48.3041C415.042 46.7094 414.453 45.912 413.274 45.912C412.512 45.912 411.645 46.3627 410.674 47.2641C409.842 48.0267 408.976 48.9974 408.074 50.1761C407.242 51.3547 406.514 52.4987 405.89 53.6081C405.266 54.6481 404.85 55.4107 404.642 55.896C405.128 56.2427 405.752 56.4161 406.514 56.4161Z" fill="#C49F59"/>
<path d="M388.104 70.0401C386.995 70.0401 386.024 69.5895 385.192 68.6881C384.36 67.7868 383.944 66.3655 383.944 64.4241C383.944 62.9681 384.221 61.3388 384.776 59.5361C385.4 57.6641 386.197 55.7921 387.168 53.9201C388.139 52.0481 389.144 50.3841 390.184 48.9281C388.797 49.6908 387.133 50.9041 385.192 52.5681C383.32 54.2321 381.517 56.0695 379.784 58.0801C378.051 60.0215 376.699 61.8588 375.728 63.5921C375.381 64.2161 374.792 64.6668 373.96 64.9441C373.197 65.1521 372.885 65.1175 373.024 64.8401C373.093 64.7708 373.371 64.1815 373.856 63.0721C374.411 61.8935 374.965 60.6801 375.52 59.4321C376.075 58.1841 376.421 57.3521 376.56 56.9361C377.115 55.5495 377.496 54.4055 377.704 53.5041C377.981 52.5335 378.12 51.8055 378.12 51.3201C378.12 50.5575 377.843 50.1761 377.288 50.1761C376.664 50.1761 375.763 50.6615 374.584 51.6321C373.475 52.5335 372.365 53.5735 371.256 54.7521C370.216 55.8615 369.453 56.7281 368.968 57.3521C368.275 58.1841 367.443 59.2588 366.472 60.5761C365.571 61.8241 364.704 63.1068 363.872 64.4241C363.109 65.7415 362.589 66.9201 362.312 67.9601C362.243 68.2375 362.173 68.4801 362.104 68.6881C362.035 68.8268 361.965 68.9655 361.896 69.1041C361.619 69.5895 361.237 69.5548 360.752 69.0001C360.197 68.3761 359.92 67.3708 359.92 65.9841C359.92 64.5281 360.163 62.8988 360.648 61.0961C361.203 59.2241 361.827 57.5255 362.52 56.0001C363.213 54.5441 363.837 53.2615 364.392 52.1521C365.016 51.0428 365.432 50.3495 365.64 50.0721C366.403 49.1015 367.2 48.3041 368.032 47.6801C368.864 47.0561 369.696 46.7441 370.528 46.7441C370.944 46.7441 371.256 46.8481 371.464 47.0561C371.741 47.2641 371.776 47.4375 371.568 47.5761C371.013 47.8535 370.285 48.6161 369.384 49.8641C368.483 51.0428 367.547 52.4295 366.576 54.0241C365.952 55.1335 365.155 56.6241 364.184 58.4961C363.213 60.3681 362.659 61.9628 362.52 63.2801C362.52 63.8348 362.659 64.0775 362.936 64.0081C363.768 62.6215 364.565 61.3388 365.328 60.1601C366.16 58.9815 367.096 57.7681 368.136 56.5201C369.176 55.2721 370.355 53.9895 371.672 52.6721C372.989 51.2855 374.272 50.1415 375.52 49.2401C376.837 48.2695 377.877 47.8188 378.64 47.8881C379.541 47.9575 380.165 48.2348 380.512 48.7201C380.859 49.2055 381.032 49.7948 381.032 50.4881C381.032 51.5975 380.789 52.7415 380.304 53.9201C379.819 55.0988 379.403 56.0695 379.056 56.8321L378.64 57.8721C379.68 56.4855 380.963 55.0295 382.488 53.5041C384.013 51.9788 385.573 50.6268 387.168 49.4481C388.763 48.2001 390.149 47.3681 391.328 46.9521C392.021 46.6748 392.68 46.5361 393.304 46.5361C393.928 46.5361 394.24 46.7441 394.24 47.1601C394.24 47.2988 394.067 47.6455 393.72 48.2001C392.125 50.3495 390.704 52.5335 389.456 54.7521C388.208 56.9708 387.376 59.4668 386.96 62.2401C386.891 62.6561 386.821 63.0721 386.752 63.4881C386.752 63.8348 386.752 64.1815 386.752 64.5281C386.752 65.6375 386.925 66.6081 387.272 67.4401C387.619 68.2028 388.243 68.5841 389.144 68.5841C390.461 68.5841 391.813 67.9948 393.2 66.8161C394.587 65.5681 395.973 64.0081 397.36 62.1361C398.747 60.1948 400.099 58.2535 401.416 56.3121C401.555 56.1041 401.659 56.0001 401.728 56.0001C401.936 56.0001 402.04 56.1735 402.04 56.5201C402.04 56.9361 401.867 57.4215 401.52 57.9761C400.341 59.7788 399.024 61.6161 397.568 63.4881C396.181 65.3601 394.691 66.9201 393.096 68.1681C391.501 69.4161 389.837 70.0401 388.104 70.0401Z" fill="#C49F59"/>
<path d="M346.832 69.8321C343.99 69.8321 341.91 69.2081 340.592 67.9601C339.275 66.6427 338.616 64.9094 338.616 62.7601C338.616 62.2054 338.651 61.6507 338.72 61.0961C338.859 60.4721 338.998 59.8481 339.136 59.2241C339.483 57.9761 340.038 56.5201 340.8 54.8561C341.632 53.1921 342.638 51.5627 343.816 49.9681C344.995 48.3734 346.278 47.0561 347.664 46.0161C349.051 44.9761 350.507 44.4561 352.032 44.4561C353.28 44.4561 354.216 44.9067 354.84 45.8081C355.534 46.7094 355.88 47.7841 355.88 49.0321C355.88 50.3494 355.464 51.7014 354.632 53.0881C353.87 54.4054 352.83 55.4801 351.512 56.312C349.987 57.352 348.254 57.8721 346.312 57.8721C345.064 57.8721 343.92 57.6294 342.88 57.1441C341.84 59.2241 341.32 61.2694 341.32 63.2801C341.32 64.7361 341.736 65.9841 342.568 67.0241C343.4 68.0641 344.787 68.5841 346.728 68.5841C349.086 68.5841 351.166 68.0294 352.968 66.9201C354.771 65.7414 356.435 64.2161 357.96 62.3441C359.555 60.4721 361.08 58.4614 362.536 56.312C362.744 56.1041 362.883 56.0001 362.952 56.0001C363.16 56.0001 363.264 56.1734 363.264 56.5201C363.264 56.8667 363.16 57.2134 362.952 57.5601C361.704 59.5014 360.283 61.4081 358.688 63.2801C357.163 65.1521 355.43 66.7121 353.488 67.9601C351.547 69.2081 349.328 69.8321 346.832 69.8321ZM345.272 56.4161C347.075 56.4161 348.774 55.7921 350.368 54.5441C351.131 53.9894 351.79 53.3307 352.344 52.5681C352.899 51.8054 353.28 51.0427 353.488 50.2801C353.696 49.5174 353.8 48.8587 353.8 48.3041C353.8 46.7094 353.211 45.912 352.032 45.912C351.27 45.912 350.403 46.3627 349.432 47.2641C348.6 48.0267 347.734 48.9974 346.832 50.1761C346 51.3547 345.272 52.4987 344.648 53.6081C344.024 54.6481 343.608 55.4107 343.4 55.896C343.886 56.2427 344.51 56.4161 345.272 56.4161Z" fill="#C49F59"/>
<path d="M326.139 72.1049C325.372 72.1049 324.606 71.9516 323.839 71.6449C323.072 71.4149 322.344 71.1466 321.654 70.8399C319.661 69.6899 317.591 67.6966 315.444 64.8599C313.374 62.0233 311.381 58.8033 309.464 55.1999C307.624 51.5966 306.014 48.0316 304.634 44.5049C303.331 40.9016 302.411 37.7966 301.874 35.1899L301.759 35.3049C299.842 36.9916 297.696 38.8699 295.319 40.9399C292.942 42.9333 291.102 44.8883 289.799 46.8049C287.882 50.2549 286.349 53.4749 285.199 56.4649C284.126 59.3783 283.589 61.7933 283.589 63.7099C283.589 65.0133 283.857 65.9716 284.394 66.5849C284.854 67.2749 285.084 67.8499 285.084 68.3099C285.084 69.0766 284.624 69.3066 283.704 68.9999C281.787 68.1566 280.829 66.3549 280.829 63.5949C280.829 61.1416 281.481 58.1899 282.784 54.7399C284.164 51.2899 285.966 47.5333 288.189 43.4699C290.412 39.4066 292.904 35.3049 295.664 31.1649C298.424 26.9483 301.222 22.9233 304.059 19.0899C306.972 15.2566 309.732 11.8449 312.339 8.85492C311.419 8.08825 310.116 7.51325 308.429 7.12992C306.742 6.74658 304.979 6.51658 303.139 6.43992C301.299 6.28659 299.727 6.24825 298.424 6.32492C297.121 6.32492 296.354 6.32492 296.124 6.32492C292.061 6.63159 288.112 7.12992 284.279 7.81992C280.522 8.43325 277.647 9.16158 275.654 10.0049C273.737 10.7716 272.204 11.6149 271.054 12.5349C269.904 13.3783 269.329 14.2983 269.329 15.2949C269.329 16.5983 270.479 17.9016 272.779 19.2049C272.932 19.3583 273.009 19.5116 273.009 19.6649C273.009 19.8949 272.932 20.0866 272.779 20.2399C272.626 20.3933 272.434 20.4316 272.204 20.3549C270.671 19.5116 269.521 18.5533 268.754 17.4799C268.064 16.4066 267.719 15.3716 267.719 14.3749C267.719 13.0716 268.256 11.8449 269.329 10.6949C270.402 9.54492 271.897 8.58659 273.814 7.81992C275.041 7.35992 277.034 6.89992 279.794 6.43992C282.554 5.90325 285.659 5.48159 289.109 5.17492C292.636 4.86826 296.086 4.71492 299.459 4.71492C303.446 4.71492 306.934 5.02159 309.924 5.63492C312.914 6.17159 314.601 7.20659 314.984 8.73992V8.96992C314.984 9.65992 314.831 10.3883 314.524 11.1549C314.294 11.8449 314.064 12.1133 313.834 11.9599L312.799 13.3399C309.732 17.0199 306.551 21.1599 303.254 25.7599C299.957 30.3599 296.929 34.9216 294.169 39.4449C295.396 38.4483 296.622 37.4516 297.849 36.4549C299.076 35.4583 300.302 34.3849 301.529 33.2349C301.452 32.3149 301.644 31.5866 302.104 31.0499C302.564 30.4366 303.024 30.1299 303.484 30.1299C303.944 30.1299 304.289 30.3599 304.519 30.8199C307.969 27.5999 312.071 24.2649 316.824 20.8149C321.577 17.3649 326.599 14.1449 331.889 11.1549C337.256 8.08825 342.546 5.63492 347.759 3.79492C352.972 1.87826 357.764 0.919922 362.134 0.919922C362.977 0.919922 363.744 0.958254 364.434 1.03492C365.201 1.11159 365.929 1.22659 366.619 1.37992C367.386 1.60992 367.769 1.99325 367.769 2.52992C367.769 2.98992 367.539 3.37325 367.079 3.67992C366.696 3.98659 366.159 4.10159 365.469 4.02493C364.319 3.79492 363.092 3.67992 361.789 3.67992C357.956 3.67992 353.547 4.52325 348.564 6.20992C343.581 7.89659 338.444 10.1583 333.154 12.9949C327.864 15.7549 322.766 18.8216 317.859 22.1949C312.952 25.5683 308.659 28.9033 304.979 32.1999C305.362 33.7333 306.014 35.8799 306.934 38.6399C307.931 41.3999 309.081 44.4283 310.384 47.7249C311.764 50.9449 313.182 54.0883 314.639 57.1549C316.172 60.2216 317.667 62.9049 319.124 65.2049C320.657 67.4283 322.114 68.9233 323.494 69.6899C324.337 70.1499 325.219 70.3799 326.139 70.3799C327.672 70.3799 329.014 69.9199 330.164 68.9999C331.314 68.0033 332.272 66.8916 333.039 65.6649C333.882 64.3616 334.534 63.2883 334.994 62.4449C335.224 62.0616 335.531 61.8699 335.914 61.8699C336.297 61.8699 336.489 62.0616 336.489 62.4449C336.489 62.5983 336.451 62.6749 336.374 62.6749C335.914 63.8249 335.224 65.1666 334.304 66.6999C333.384 68.1566 332.234 69.4216 330.854 70.4949C329.551 71.5683 327.979 72.1049 326.139 72.1049Z" fill="#C49F59"/>
<path d="M226.669 70.6961C225.185 70.6961 223.842 70.5901 222.641 70.3781C221.51 70.1661 220.662 69.9541 220.097 69.7421C219.319 69.4594 218.719 69.1061 218.295 68.6821C217.941 68.1874 217.765 67.7634 217.765 67.4101C217.765 66.9154 218.012 66.6681 218.507 66.6681C218.86 66.6681 219.284 66.8801 219.779 67.3041C220.768 68.1521 221.722 68.6468 222.641 68.7881C223.418 68.7881 224.443 68.6821 225.715 68.4701C226.987 68.1874 227.87 67.7988 228.365 67.3041C229.213 66.4561 229.637 65.6081 229.637 64.7601C229.637 64.1948 229.46 63.6647 229.107 63.1701C228.824 62.6047 228.4 62.0748 227.835 61.5801C226.916 60.8028 225.997 60.0254 225.079 59.2481C224.16 58.4001 223.383 57.4814 222.747 56.4921C221.757 54.9374 221.263 53.4181 221.263 51.9341C221.263 49.6727 222.005 47.5527 223.489 45.5741C225.043 43.5954 226.704 41.9701 228.471 40.6981C230.379 39.3554 232.322 38.6841 234.301 38.6841C235.361 38.6841 236.35 38.9314 237.269 39.4261C238.187 39.8501 238.894 40.5567 239.389 41.5461C239.459 41.6874 239.495 41.8641 239.495 42.0761C239.495 42.5001 239.353 42.7827 239.071 42.9241C238.788 43.0654 238.576 42.9241 238.435 42.5001C238.011 41.3694 236.845 40.8041 234.937 40.8041C233.806 40.8041 232.569 41.0161 231.227 41.4401C229.955 41.8641 228.93 42.3587 228.153 42.9241C225.75 44.7614 224.549 47.1288 224.549 50.0261C224.549 52.0754 225.22 53.9128 226.563 55.5381C227.481 56.6688 228.435 57.7288 229.425 58.7181C230.485 59.6368 231.368 60.5554 232.075 61.4741C232.781 62.3221 233.029 63.1701 232.817 64.0181C232.463 65.5727 231.439 66.8448 229.743 67.8341C228.117 68.7528 226.598 69.2828 225.185 69.4241C225.609 69.4948 226.386 69.5301 227.517 69.5301C231.545 69.5301 234.972 68.1874 237.799 65.5021C240.696 62.8167 243.346 59.6367 245.749 55.9621C245.89 55.7501 246.031 55.6441 246.173 55.6441C246.314 55.6441 246.385 55.8207 246.385 56.1741C246.385 56.5981 246.208 57.0927 245.855 57.6581C243.169 61.7567 240.378 64.9721 237.481 67.3041C234.654 69.5654 231.05 70.6961 226.669 70.6961Z" fill="#C49F59"/>
<path d="M203.789 69.8479C200.892 69.8479 198.772 69.2119 197.429 67.9399C196.087 66.5972 195.415 64.8306 195.415 62.6399C195.415 62.0746 195.451 61.5092 195.521 60.9439C195.663 60.3079 195.804 59.6719 195.945 59.0359C196.299 57.7639 196.864 56.2799 197.641 54.5839C198.489 52.8879 199.514 51.2272 200.715 49.6019C201.917 47.9765 203.224 46.6339 204.637 45.5739C206.051 44.5139 207.535 43.9839 209.089 43.9839C210.361 43.9839 211.315 44.4432 211.951 45.3619C212.658 46.2806 213.011 47.3759 213.011 48.6479C213.011 49.9906 212.587 51.3686 211.739 52.7819C210.962 54.1246 209.902 55.2199 208.559 56.0679C207.005 57.1279 205.238 57.6579 203.259 57.6579C201.987 57.6579 200.821 57.4106 199.761 56.9159C198.701 59.0359 198.171 61.1206 198.171 63.1699C198.171 64.6539 198.595 65.9259 199.443 66.9859C200.291 68.0459 201.705 68.5759 203.683 68.5759C206.086 68.5759 208.206 68.0105 210.043 66.8799C211.881 65.6785 213.577 64.1239 215.131 62.2159C216.757 60.3079 218.311 58.2586 219.795 56.0679C220.007 55.8559 220.149 55.7499 220.219 55.7499C220.431 55.7499 220.537 55.9266 220.537 56.2799C220.537 56.6332 220.431 56.9865 220.219 57.3399C218.947 59.3185 217.499 61.2619 215.873 63.1699C214.319 65.0779 212.552 66.6679 210.573 67.9399C208.595 69.2119 206.333 69.8479 203.789 69.8479ZM202.199 56.1739C204.037 56.1739 205.768 55.5379 207.393 54.2659C208.171 53.7006 208.842 53.0292 209.407 52.2519C209.973 51.4746 210.361 50.6972 210.573 49.9199C210.785 49.1425 210.891 48.4712 210.891 47.9059C210.891 46.2806 210.291 45.4679 209.089 45.4679C208.312 45.4679 207.429 45.9272 206.439 46.8459C205.591 47.6232 204.708 48.6125 203.789 49.8139C202.941 51.0152 202.199 52.1812 201.563 53.3119C200.927 54.3719 200.503 55.1492 200.291 55.6439C200.786 55.9972 201.422 56.1739 202.199 56.1739Z" fill="#C49F59"/>
<path d="M182.916 69.6357C181.715 69.6357 180.761 69.247 180.054 68.4697C179.418 67.6217 179.1 66.6324 179.1 65.5017C179.1 64.4417 179.348 63.417 179.842 62.4277C180.62 60.8024 181.609 59.2124 182.81 57.6577C184.082 56.0324 185.248 54.619 186.308 53.4177C187.015 52.499 187.368 51.7217 187.368 51.0857C187.368 50.2377 186.838 49.3897 185.778 48.5417C184.93 47.9764 184.153 47.2344 183.446 46.3157C182.952 45.609 182.598 44.9024 182.386 44.1957C181.256 46.5277 179.807 49.2484 178.04 52.3577C176.344 55.3964 174.578 58.117 172.74 60.5197C172.458 60.9437 172.175 61.1557 171.892 61.1557C171.68 61.1557 171.574 61.0144 171.574 60.7317C171.574 60.5904 171.61 60.449 171.68 60.3077C171.751 60.1664 171.963 59.8484 172.316 59.3537C174.154 56.8097 175.638 54.4424 176.768 52.2517C177.899 50.061 178.888 48.0117 179.736 46.1037L182.068 40.9097C182.139 40.7684 182.21 40.5917 182.28 40.3797C182.422 40.097 182.528 39.9204 182.598 39.8497C182.74 39.7084 182.881 39.6377 183.022 39.6377C183.305 39.6377 183.517 39.779 183.658 40.0617C183.8 40.3444 183.8 40.6977 183.658 41.1217C183.517 41.899 183.623 42.6764 183.976 43.4537C184.33 44.231 184.789 44.9377 185.354 45.5737C185.92 46.139 186.732 46.669 187.792 47.1637C188.852 47.6584 189.806 48.2237 190.654 48.8597C191.502 49.4957 191.82 50.3084 191.608 51.2977C191.326 52.6404 190.584 53.9477 189.382 55.2197C188.181 56.4917 186.98 57.8344 185.778 59.2477C184.93 60.1664 184.153 61.085 183.446 62.0037C182.81 62.9224 182.316 63.8764 181.962 64.8657C181.892 65.0777 181.821 65.2897 181.75 65.5017C181.75 65.7137 181.75 65.9257 181.75 66.1377C181.75 67.4097 182.422 68.0457 183.764 68.0457C184.188 68.0457 184.718 67.9397 185.354 67.7277C187.121 67.0917 188.746 66.0317 190.23 64.5477C191.785 63.0637 193.092 61.5797 194.152 60.0957C195.283 58.6117 196.025 57.587 196.378 57.0217C196.944 56.1737 197.297 55.7497 197.438 55.7497C197.65 55.7497 197.756 55.9264 197.756 56.2797C197.756 56.633 197.65 56.9864 197.438 57.3397C195.884 59.813 194.117 62.145 192.138 64.3357C190.16 66.5264 188.04 68.081 185.778 68.9997C184.718 69.4237 183.764 69.6357 182.916 69.6357Z" fill="#C49F59"/>
<path d="M141.283 98.892C139.163 98.892 137.715 98.256 136.937 96.984C136.513 96.2067 136.301 95.394 136.301 94.546C136.301 93.698 136.513 92.7794 136.937 91.79C137.291 90.8007 137.75 89.8114 138.315 88.822C139.305 87.1967 140.471 85.6067 141.813 84.052C143.156 82.4974 144.463 81.084 145.735 79.812C147.078 78.54 148.173 77.5507 149.021 76.844C150.435 75.6427 152.166 74.2294 154.215 72.604C156.265 70.9787 158.349 69.6007 160.469 68.47C160.611 68.3994 160.752 68.364 160.893 68.364C161.105 68.364 161.211 68.47 161.211 68.682C161.211 69.106 161.035 69.3887 160.681 69.53C159.763 70.0247 158.597 70.7667 157.183 71.756C155.77 72.816 154.357 73.876 152.943 74.936C151.601 76.0667 150.47 77.056 149.551 77.904C148.845 78.54 147.855 79.494 146.583 80.766C145.382 82.038 144.181 83.4514 142.979 85.0061C141.707 86.6314 140.647 88.2567 139.799 89.882C139.517 90.4474 139.199 91.1894 138.845 92.108C138.492 93.0974 138.315 94.016 138.315 94.864C138.315 95.5707 138.527 96.136 138.951 96.56C139.305 97.0547 139.976 97.302 140.965 97.302C142.449 97.302 143.969 96.772 145.523 95.712C147.078 94.652 148.597 93.3094 150.081 91.684C151.565 90.1294 152.873 88.5394 154.003 86.914C155.205 85.3594 156.123 84.0167 156.759 82.886C158.455 80.0594 159.975 76.9854 161.317 73.664C162.731 70.4134 163.826 67.0567 164.603 63.594C165.381 60.1314 165.628 56.8454 165.345 53.736C165.275 52.3227 164.957 50.9447 164.391 49.602C164.109 51.8634 163.261 54.266 161.847 56.81C160.505 59.354 159.127 61.474 157.713 63.17C156.583 64.5127 155.381 65.7494 154.109 66.88C152.908 67.94 151.707 68.682 150.505 69.106C149.445 69.53 148.527 69.742 147.749 69.742C146.477 69.742 145.559 69.318 144.993 68.47C144.428 67.622 144.145 66.562 144.145 65.29C144.145 64.3007 144.251 63.3467 144.463 62.428C144.605 62.004 144.958 60.944 145.523 59.248C146.159 57.552 146.972 55.6794 147.961 53.63C149.021 51.5807 150.152 49.814 151.353 48.33C152.555 46.7754 153.791 45.998 155.063 45.998C155.629 45.998 155.911 46.1394 155.911 46.422C155.911 46.7047 155.77 46.9874 155.487 47.27C154.074 48.966 152.731 50.98 151.459 53.312C150.258 55.5734 149.233 57.7287 148.385 59.778C147.608 61.8274 147.149 63.382 147.007 64.442C146.795 66.7034 147.467 67.834 149.021 67.834C150.293 67.834 151.601 67.3394 152.943 66.35C154.286 65.29 155.593 63.9474 156.865 62.322C158.42 60.3434 159.692 58.294 160.681 56.174C161.671 54.054 162.377 52.2167 162.801 50.662C162.943 50.238 163.084 49.7787 163.225 49.284C163.437 48.7894 163.543 48.2947 163.543 47.8V47.694C163.543 47.1994 163.932 46.952 164.709 46.952C165.204 46.952 165.663 47.27 166.087 47.906C167.43 50.0967 168.101 52.9587 168.101 56.492C168.101 59.5307 167.642 62.7814 166.723 66.244C165.875 69.7067 164.674 73.134 163.119 76.526C161.635 79.9887 159.904 83.204 157.925 86.172C155.947 89.2107 153.827 91.79 151.565 93.91C149.375 96.03 147.184 97.4787 144.993 98.256C143.651 98.68 142.414 98.892 141.283 98.892Z" fill="#C49F59"/>
<path d="M133.437 70.06C132.306 70.06 131.317 69.6007 130.469 68.682C129.621 67.7633 129.197 66.3147 129.197 64.336C129.197 62.852 129.479 61.1913 130.045 59.354C130.681 57.446 131.493 55.538 132.483 53.63C133.472 51.722 134.497 50.026 135.557 48.542C134.143 49.3193 132.447 50.556 130.469 52.252C128.561 53.948 126.723 55.8207 124.957 57.87C123.19 59.8487 121.812 61.7213 120.823 63.488C120.469 64.124 119.869 64.5833 119.021 64.866C118.243 65.078 117.925 65.0427 118.067 64.76C118.137 64.6893 118.42 64.0887 118.915 62.958C119.48 61.7567 120.045 60.52 120.611 59.248C121.176 57.976 121.529 57.128 121.671 56.704C122.236 55.2907 122.625 54.1247 122.837 53.206C123.119 52.2167 123.261 51.4747 123.261 50.98C123.261 50.2027 122.978 49.814 122.413 49.814C121.777 49.814 120.858 50.3087 119.657 51.298C118.526 52.2167 117.395 53.2767 116.265 54.478C115.205 55.6087 114.427 56.492 113.933 57.128C113.226 57.976 112.378 59.0713 111.389 60.414C110.47 61.686 109.587 62.9933 108.739 64.336C107.961 65.6787 107.431 66.88 107.149 67.94C107.078 68.2227 107.007 68.47 106.937 68.682C106.866 68.8233 106.795 68.9647 106.725 69.106C106.442 69.6007 106.053 69.5653 105.559 69C104.993 68.364 104.711 67.3393 104.711 65.926C104.711 64.442 104.958 62.7813 105.453 60.944C106.018 59.036 106.654 57.3047 107.361 55.75C108.067 54.266 108.703 52.9587 109.269 51.828C109.905 50.6973 110.329 49.9907 110.541 49.708C111.318 48.7187 112.131 47.906 112.979 47.27C113.827 46.634 114.675 46.316 115.523 46.316C115.947 46.316 116.265 46.422 116.477 46.634C116.759 46.846 116.795 47.0227 116.583 47.164C116.017 47.4467 115.275 48.224 114.357 49.496C113.438 50.6973 112.484 52.1107 111.495 53.736C110.859 54.8667 110.046 56.386 109.057 58.294C108.067 60.202 107.502 61.8273 107.361 63.17C107.361 63.7353 107.502 63.9827 107.785 63.912C108.633 62.4987 109.445 61.1913 110.223 59.99C111.071 58.7887 112.025 57.552 113.085 56.28C114.145 55.008 115.346 53.7007 116.689 52.358C118.031 50.9447 119.339 49.7787 120.611 48.86C121.953 47.8707 123.013 47.4113 123.791 47.482C124.709 47.5527 125.345 47.8353 125.699 48.33C126.052 48.8247 126.229 49.4253 126.229 50.132C126.229 51.2627 125.981 52.4287 125.487 53.63C124.992 54.8313 124.568 55.8207 124.215 56.598L123.791 57.658C124.851 56.2447 126.158 54.7607 127.713 53.206C129.267 51.6513 130.857 50.2733 132.483 49.072C134.108 47.8 135.521 46.952 136.723 46.528C137.429 46.2453 138.101 46.104 138.737 46.104C139.373 46.104 139.691 46.316 139.691 46.74C139.691 46.8813 139.514 47.2347 139.161 47.8C137.535 49.9907 136.087 52.2167 134.815 54.478C133.543 56.7393 132.695 59.2833 132.271 62.11C132.2 62.534 132.129 62.958 132.059 63.382C132.059 63.7353 132.059 64.0887 132.059 64.442C132.059 65.5727 132.235 66.562 132.589 67.41C132.942 68.1873 133.578 68.576 134.497 68.576C135.839 68.576 137.217 67.9753 138.631 66.774C140.044 65.502 141.457 63.912 142.871 62.004C144.284 60.0253 145.662 58.0467 147.005 56.068C147.146 55.856 147.252 55.75 147.323 55.75C147.535 55.75 147.641 55.9267 147.641 56.28C147.641 56.704 147.464 57.1987 147.111 57.764C145.909 59.6013 144.567 61.474 143.083 63.382C141.669 65.29 140.15 66.88 138.525 68.152C136.899 69.424 135.203 70.06 133.437 70.06Z" fill="#C49F59"/>
<path d="M93.3671 69.7422C92.0951 69.7422 91.1411 69.3182 90.5051 68.4702C89.9398 67.6222 89.6571 66.5268 89.6571 65.1842C89.6571 64.2655 89.7631 63.3468 89.9751 62.4282C90.0458 62.2868 90.1518 61.9688 90.2931 61.4742C90.4344 60.9088 90.6464 60.2728 90.9291 59.5662C89.9398 61.1208 88.6678 62.8522 87.1131 64.7602C85.6291 66.5975 83.9684 67.9755 82.1311 68.8942C81.0711 69.3888 80.0111 69.6362 78.9511 69.6362C77.5378 69.6362 76.4071 69.1062 75.5591 68.0462C74.7111 66.9155 74.2871 65.3608 74.2871 63.3822C74.2871 61.7568 74.6404 60.0255 75.3471 58.1882C76.0538 56.2802 77.0784 54.3368 78.4211 52.3582C79.2691 51.0862 80.3644 49.8495 81.7071 48.6482C83.0498 47.4468 84.4984 46.4575 86.0531 45.6802C87.6078 44.9028 89.0918 44.5142 90.5051 44.5142C91.9184 44.5142 93.1198 44.9028 94.1091 45.6802C95.0984 46.4575 95.6284 47.6235 95.6991 49.1782C95.6991 49.3902 95.5931 49.5668 95.3811 49.7082C95.2398 49.7788 95.0984 49.6728 94.9571 49.3902C94.1091 47.4822 92.7311 46.5282 90.8231 46.5282C89.5511 46.5282 88.2084 47.1288 86.7951 48.3302C85.3818 49.4608 84.0038 50.9095 82.6611 52.6762C81.3184 54.4428 80.1524 56.2095 79.1631 57.9762C78.3151 59.5308 77.6791 60.9442 77.2551 62.2162C76.9018 63.4882 76.7251 64.5835 76.7251 65.5022C76.7251 67.4102 77.4671 68.3642 78.9511 68.3642C79.7284 68.3642 80.5764 68.1168 81.4951 67.6222C82.3431 67.1275 83.3678 66.2442 84.5691 64.9722C85.8411 63.7002 87.0778 62.2868 88.2791 60.7322C89.5511 59.1775 90.6818 57.6582 91.6711 56.1742C92.7311 54.6902 93.5084 53.5242 94.0031 52.6762C95.0631 50.9095 96.1584 49.3548 97.2891 48.0122C98.4198 46.6695 99.5504 45.9982 100.681 45.9982C101.246 45.9982 101.529 46.1395 101.529 46.4222C101.529 46.7048 101.388 46.9875 101.105 47.2702C99.6918 48.9662 98.3491 50.9802 97.0771 53.3122C95.8758 55.5735 94.8511 57.7288 94.0031 59.7782C93.2258 61.8275 92.7664 63.3822 92.6251 64.4422C92.4131 66.7035 93.0844 67.8342 94.6391 67.8342C94.8511 67.8342 95.0631 67.8342 95.2751 67.8342C95.4871 67.7635 95.7344 67.6928 96.0171 67.6222C97.5011 67.1275 98.9498 66.2088 100.363 64.8662C101.776 63.5235 103.084 62.0748 104.285 60.5202C105.486 58.8948 106.476 57.4815 107.253 56.2802C107.465 55.9975 107.642 55.8562 107.783 55.8562C107.995 55.8562 108.101 56.0328 108.101 56.3862C108.101 56.5982 107.995 56.8808 107.783 57.2342C107.288 57.9408 106.829 58.6475 106.405 59.3542C105.981 59.9902 105.557 60.5908 105.133 61.1562C104.992 61.4388 104.815 61.6862 104.603 61.8982C104.391 62.1102 104.179 62.3575 103.967 62.6402C103.048 63.7708 101.847 65.0075 100.363 66.3502C98.9498 67.6222 97.5364 68.5408 96.1231 69.1062C95.0631 69.5302 94.1444 69.7422 93.3671 69.7422Z" fill="#C49F59"/>
<path d="M47.0923 69.5299C46.5977 69.5299 46.209 69.2472 45.9263 68.6819C45.6437 68.1166 45.5023 67.4452 45.5023 66.6679C45.5023 65.5372 45.6437 64.3006 45.9263 62.9579C46.2797 61.5446 46.633 60.2726 46.9863 59.1419C47.3397 57.9406 47.587 57.1279 47.7283 56.7039C48.7177 54.0892 49.9897 51.1212 51.5443 47.7999C53.099 44.4079 54.9363 41.1219 57.0563 37.9419C59.247 34.6912 61.6497 31.8999 64.2643 29.5679C66.879 27.1652 69.7057 25.6106 72.7443 24.9039C73.0977 24.8332 73.4157 24.7979 73.6983 24.7979C74.0517 24.7272 74.3697 24.6919 74.6523 24.6919C75.783 24.6919 76.7017 24.9392 77.4083 25.4339C78.115 25.8579 78.5743 26.4232 78.7863 27.1299C78.7863 27.2006 78.7863 27.2712 78.7863 27.3419C78.857 27.4126 78.8923 27.5186 78.8923 27.6599C78.8923 28.0132 78.7863 28.1899 78.5743 28.1899C78.221 28.1899 78.009 27.9426 77.9383 27.4479C77.8677 27.0946 77.5497 26.8472 76.9843 26.7059C76.419 26.4939 75.783 26.3879 75.0763 26.3879C72.7443 26.3879 70.377 27.4126 67.9743 29.4619C65.6423 31.4406 63.3457 33.9846 61.0843 37.0939C58.8937 40.1326 56.8797 43.2772 55.0423 46.5279C53.2757 49.7786 51.827 52.6759 50.6963 55.2199C50.6257 55.3612 50.4137 55.8912 50.0603 56.8099C49.7777 57.7286 49.4597 58.8239 49.1063 60.0959C48.753 61.3679 48.4703 62.6046 48.2583 63.8059L51.1203 59.5659C52.7457 57.1632 54.7243 54.7606 57.0563 52.3579C59.3883 49.8846 61.9323 47.8706 64.6883 46.3159C64.971 46.1746 65.2537 46.0686 65.5363 45.9979C65.8897 45.9272 66.2077 45.8919 66.4903 45.8919C67.1263 45.8919 67.4443 46.1039 67.4443 46.5279C67.4443 46.6692 67.2677 47.0226 66.9143 47.5879C65.4303 49.5666 64.2643 51.6512 63.4163 53.8419C62.5683 55.9619 62.0383 58.2939 61.8263 60.8379C61.7557 62.3926 61.897 63.8412 62.2503 65.1839C62.6743 66.5266 63.5577 67.1979 64.9003 67.1979C66.3843 67.1979 67.833 66.5619 69.2463 65.2899C70.7303 63.9472 72.073 62.4279 73.2743 60.7319C74.5463 58.9652 75.6417 57.4106 76.5603 56.0679C76.7017 55.8559 76.8077 55.7499 76.8783 55.7499C77.0903 55.7499 77.1963 55.9619 77.1963 56.3859C77.1963 56.8099 77.0197 57.3046 76.6663 57.8699C75.5357 59.5659 74.299 61.2619 72.9563 62.9579C71.6843 64.6539 70.3063 66.0672 68.8223 67.1979C67.3383 68.3286 65.713 68.8939 63.9463 68.8939C62.1797 68.8939 60.9077 68.2226 60.1303 66.8799C59.353 65.5372 58.9643 63.9119 58.9643 62.0039C58.9643 59.9546 59.2823 57.7639 59.9183 55.4319C60.625 53.0999 61.4377 51.1566 62.3563 49.6019C60.519 50.9446 58.611 52.6406 56.6323 54.6899C54.6537 56.6686 52.9577 58.7886 51.5443 61.0499C51.0497 61.9686 50.343 63.1346 49.4243 64.5479C48.5057 65.8906 47.9757 67.0212 47.8343 67.9399C47.6223 68.9999 47.375 69.5299 47.0923 69.5299Z" fill="#C49F59"/>
<path d="M7.12999 22.0798C4.98333 21.1598 3.37333 20.1632 2.29999 19.0898C1.30333 17.9398 0.804993 16.7898 0.804993 15.6398C0.804993 14.2598 1.53333 12.9182 2.98999 11.6148C4.52333 10.3115 6.66999 9.23818 9.42999 8.39485C10.6567 8.01151 12.765 7.62818 15.755 7.24485C18.745 6.78484 22.2717 6.36318 26.335 5.97984C30.3983 5.59651 34.6917 5.28984 39.215 5.05984C43.815 4.82984 48.3383 4.71484 52.785 4.71484C57.2317 4.71484 61.3717 4.86818 65.205 5.17485C69.0383 5.48151 72.22 6.01818 74.75 6.78485C77.28 7.47485 78.8133 8.47151 79.35 9.77484C79.58 10.2348 79.695 10.7715 79.695 11.3848C79.695 12.6882 79.235 14.1065 78.315 15.6398C77.395 17.0965 76.2833 18.4765 74.98 19.7798C74.6733 20.1632 74.3283 20.3548 73.945 20.3548C73.485 20.3548 73.255 20.1248 73.255 19.6648C73.255 19.3582 73.4083 19.0515 73.715 18.7448C75.785 16.5982 76.6283 14.5282 76.245 12.5348C76.015 11.3082 75.0567 10.3115 73.37 9.54485C71.6833 8.77818 69.5367 8.20318 66.93 7.81985C64.4 7.35984 61.6783 7.05318 58.765 6.89985C55.9283 6.74651 53.1683 6.66984 50.485 6.66984C48.415 6.66984 46.4983 6.70818 44.735 6.78485C43.0483 6.78485 41.7067 6.82318 40.71 6.89985C36.9533 7.05318 33.1967 7.35984 29.44 7.81985C25.76 8.20318 22.3867 8.66318 19.32 9.19984C16.33 9.65985 13.8767 10.1965 11.96 10.8098C9.35333 11.5765 7.20666 12.4582 5.51999 13.4548C3.90999 14.4515 3.10499 15.4865 3.10499 16.5598C3.10499 17.2498 3.44999 17.9782 4.13999 18.7448C4.90666 19.4348 6.13333 20.1248 7.81999 20.8148C8.04999 20.8915 8.16499 21.0448 8.16499 21.2748C8.16499 21.9648 7.81999 22.2332 7.12999 22.0798ZM25.875 76.0148C24.1117 76.0148 22.655 75.5165 21.505 74.5198C20.355 73.5232 19.4733 72.2965 18.86 70.8398C18.0933 68.7698 17.71 66.3165 17.71 63.4799C17.71 60.9499 17.94 58.4198 18.4 55.8898C18.9367 53.2832 19.5117 51.0215 20.125 49.1048C21.735 44.2748 23.92 39.4832 26.68 34.7298C29.5167 29.8998 32.5833 25.3382 35.88 21.0448C39.2533 16.7515 42.5117 12.8798 45.655 9.42985C45.8083 9.27651 46.23 9.12318 46.92 8.96984C47.61 8.73984 48.2617 8.62484 48.875 8.62484C49.8717 8.62484 50.37 8.85484 50.37 9.31484C50.37 9.77485 50.0633 10.3115 49.45 10.9248C46.23 14.3748 42.8567 18.3232 39.33 22.7698C35.8033 27.2165 32.545 31.9315 29.555 36.9148C26.565 41.8982 24.265 46.9198 22.655 51.9799C21.3517 56.0432 20.7 59.9148 20.7 63.5948C20.7 64.6682 20.7767 65.7798 20.93 66.9298C21.0833 68.0032 21.275 69.0765 21.505 70.1498C21.8883 71.6065 22.655 72.7565 23.805 73.5998C25.0317 74.5198 26.1817 74.8265 27.255 74.5198L27.715 74.4048C28.3283 74.4048 28.635 74.6348 28.635 75.0948C28.635 75.5548 28.2133 75.8232 27.37 75.8998C27.0633 75.9765 26.795 76.0148 26.565 76.0148C26.335 76.0148 26.105 76.0148 25.875 76.0148Z" fill="#C49F59"/>
</svg>
