<svg width="221" height="32" viewBox="0 0 221 32" fill="none" xmlns="http://www.w3.org/2000/svg">
<path d="M197.575 31.0004L207.838 7.73535H210.148L220.411 31.0004H217.606L215.032 25.0604H202.921L200.38 31.0004H197.575ZM208.96 10.9034L203.911 22.7834H214.075L209.026 10.9034H208.96Z" fill="white"/>
<path d="M178.03 31.297C175.742 31.297 173.784 30.813 172.156 29.845C170.528 28.877 169.274 27.502 168.394 25.72C167.536 23.938 167.107 21.815 167.107 19.351C167.107 16.909 167.536 14.797 168.394 13.015C169.274 11.233 170.528 9.85799 172.156 8.88999C173.784 7.92199 175.742 7.43799 178.03 7.43799C179.636 7.43799 181.11 7.69099 182.452 8.19699C183.816 8.70299 184.971 9.43999 185.917 10.408L184.861 12.619C183.849 11.673 182.793 10.991 181.693 10.573C180.615 10.133 179.416 9.91299 178.096 9.91299C175.478 9.91299 173.476 10.738 172.09 12.388C170.704 14.038 170.011 16.359 170.011 19.351C170.011 22.365 170.704 24.697 172.09 26.347C173.476 27.997 175.478 28.822 178.096 28.822C179.416 28.822 180.615 28.613 181.693 28.195C182.793 27.755 183.849 27.062 184.861 26.116L185.917 28.327C184.971 29.273 183.816 30.01 182.452 30.538C181.11 31.044 179.636 31.297 178.03 31.297Z" fill="white"/>
<path d="M149.292 31.0004V7.73535H151.998V31.0004H149.292Z" fill="white"/>
<path d="M124.919 31.0004V10.0784H116.471V7.73535H136.106V10.0784H127.658V31.0004H124.919Z" fill="white"/>
<path d="M90.1598 31.0001V7.7351H104.845V10.0121H92.7998V18.0641H104.152V20.3411H92.7998V28.7231H104.845V31.0001H90.1598ZM96.9578 5.7551L100.852 0.0791016H103.855L99.0038 5.7551H96.9578Z" fill="white"/>
<path d="M65.7872 31.0004V10.0784H57.3392V7.73535H76.9742V10.0784H68.5262V31.0004H65.7872Z" fill="white"/>
<path d="M37.5529 31.297C35.7269 31.297 34.0769 31.066 32.6029 30.604C31.1289 30.12 29.8529 29.427 28.7749 28.525L29.7319 26.347C30.8539 27.205 32.0309 27.843 33.2629 28.261C34.4949 28.679 35.9249 28.888 37.5529 28.888C39.5329 28.888 40.9959 28.525 41.9419 27.799C42.9099 27.051 43.3939 26.072 43.3939 24.862C43.3939 23.894 43.0419 23.124 42.3379 22.552C41.6559 21.98 40.5009 21.529 38.8729 21.199L35.4409 20.506C33.3729 20.066 31.8219 19.351 30.7879 18.361C29.7759 17.349 29.2699 16.007 29.2699 14.335C29.2699 12.949 29.6219 11.739 30.3259 10.705C31.0519 9.67099 32.0529 8.86799 33.3289 8.29599C34.6049 7.72399 36.0789 7.43799 37.7509 7.43799C39.3129 7.43799 40.7649 7.69099 42.1069 8.19699C43.4489 8.68099 44.5819 9.38499 45.5059 10.309L44.5489 12.421C43.5589 11.519 42.5139 10.87 41.4139 10.474C40.3139 10.056 39.0819 9.84699 37.7179 9.84699C35.9799 9.84699 34.5939 10.254 33.5599 11.068C32.5259 11.86 32.0089 12.916 32.0089 14.236C32.0089 15.292 32.3279 16.128 32.9659 16.744C33.6259 17.36 34.6929 17.811 36.1669 18.097L39.5989 18.823C41.8209 19.285 43.4599 19.989 44.5159 20.935C45.5939 21.859 46.1329 23.124 46.1329 24.73C46.1329 26.028 45.7809 27.172 45.0769 28.162C44.3949 29.152 43.4049 29.922 42.1069 30.472C40.8309 31.022 39.3129 31.297 37.5529 31.297Z" fill="white"/>
<path d="M0.881897 31.0004V7.73535H15.5669V10.0124H3.5219V18.0644H14.8739V20.3414H3.5219V28.7234H15.5669V31.0004H0.881897Z" fill="white"/>
</svg>
